<svg width="128" height="128" style="enable-background:new 0 0 128 128;" xmlns="http://www.w3.org/2000/svg" xmlns:xlink="http://www.w3.org/1999/xlink">
  <g id="图层_1">
    <g>
      <linearGradient id="SVGID_1_" gradientUnits="userSpaceOnUse" x1="64" x2="64" y1="4.9627" y2="123.9005">
        <stop offset="0.0147" style="stop-color:#A1887F"/>
        <stop offset="0.2039" style="stop-color:#9D8279"/>
        <stop offset="1" style="stop-color:#8D6E63"/>
      </linearGradient>
      <path d="M110.16,96.56h-0.02V64.25V18.1c0-7.64-6.2-13.85-13.85-13.85H17.84 c-7.64,0-13.85,6.2-13.85,13.85s6.2,13.85,13.85,13.85l0,0c0.01,0,0.01,0,0.02,0h4.62h4.6v32.31v46.15 c0,7.64,6.2,13.85,13.85,13.85c0.1,0,0.18-0.03,0.27-0.03h68.98v0.03c7.65,0,13.85-6.2,13.85-13.85 C124.01,102.76,117.81,96.56,110.16,96.56z" style="fill:url(#SVGID_1_);"/>
      <path d="M17.84,8.87c5.1,0,9.23,4.14,9.23,9.23v4.44c-0.1-5-4.18-9.05-9.21-9.05 c-4.3,0-7.89,2.97-8.91,6.95c-0.2-0.75-0.34-1.52-0.34-2.34C8.61,13.01,12.75,8.87,17.84,8.87z" style="fill:#5D4037;"/>
      <circle cx="17.86" cy="21.2" r="4.62" style="fill:#6D4C41;"/>
      <linearGradient id="SVGID_3_" gradientUnits="userSpaceOnUse" x1="66.8107" x2="66.8107" y1="9.5233" y2="119.6193">
        <stop offset="0.0147" style="stop-color:#D7C1AE"/>
        <stop offset="0.2517" style="stop-color:#D1BBA9"/>
        <stop offset="0.5799" style="stop-color:#C0A99A"/>
        <stop offset="0.9599" style="stop-color:#A48C82"/>
        <stop offset="1" style="stop-color:#A1887F"/>
      </linearGradient>
      <path d="M31.68,110.4V64.25V31.94h0.02v-9.23h-0.02V18.1c0-3.56-1.38-6.78-3.59-9.23H96.3 c5.09,0,9.23,4.14,9.23,9.23v46.15v32.31h-64.6c0,0,0,0-0.01,0c0,0,0,0-0.01,0l0,0c-5.08,0.01-9.21,4.14-9.21,9.23 c0,5.09,4.14,9.23,9.23,9.23c4.28,0,7.85-2.94,8.9-6.9c0.18,0.73,0.31,1.49,0.31,2.28c0,5-3.99,9.06-8.96,9.2H40.9v0.03 C35.82,119.62,31.68,115.49,31.68,110.4z" style="fill:url(#SVGID_3_);"/>
      <path d="M45.55,105.79c0,2.54-2.07,4.62-4.62,4.62c-2.54,0-4.62-2.07-4.62-4.62c0-2.54,2.07-4.61,4.61-4.62 c0.01,0,0.01,0,0.02,0C43.49,101.19,45.55,103.25,45.55,105.79z" style="fill:#5D4037;"/>
      <path d="M110.16,119.63v-0.03H51.19c2.19-2.45,3.57-5.65,3.57-9.2c0-3.56-1.38-6.78-3.59-9.23h58.99c5.09,0,9.23,4.14,9.23,9.23 C119.39,115.49,115.25,119.63,110.16,119.63z"/>
      <linearGradient id="SVGID_4_" gradientUnits="userSpaceOnUse" x1="85.2631" x2="85.2631" y1="101.5393" y2="120.8565">
        <stop offset="0.0147" style="stop-color:#D7C1AE"/>
        <stop offset="0.2413" style="stop-color:#CFB9A7"/>
        <stop offset="0.6006" style="stop-color:#B9A294"/>
        <stop offset="0.9169" style="stop-color:#A1887F"/>
      </linearGradient>
      <path d="M110.14,119.63v-0.03H51.17c2.2-2.45,3.57-5.65,3.57-9.2c0-3.56-1.38-6.78-3.59-9.23h58.99 c5.09,0,9.23,4.14,9.23,9.23C119.38,115.49,115.24,119.63,110.14,119.63z" style="fill:url(#SVGID_4_);"/>
      <g>
        <path d="M94.5,30.43H45.93c-1.11,0-2.01-1.03-2.01-2.3s0.9-2.3,2.01-2.3H94.5c1.11,0,2.01,1.03,2.01,2.3 S95.61,30.43,94.5,30.43z" style="fill:#8D6E63;"/>
        <path d="M94.5,44.49H45.93c-1.11,0-2.01-1.03-2.01-2.3c0-1.27,0.9-2.3,2.01-2.3H94.5 c1.11,0,2.01,1.03,2.01,2.3C96.51,43.45,95.61,44.49,94.5,44.49z" style="fill:#8D6E63;"/>
        <path d="M94.5,58.55H45.93c-1.11,0-2.01-1.03-2.01-2.3c0-1.27,0.9-2.3,2.01-2.3H94.5 c1.11,0,2.01,1.03,2.01,2.3C96.51,57.52,95.61,58.55,94.5,58.55z" style="fill:#8D6E63;"/>
        <path d="M94.5,72.61H45.93c-1.11,0-2.01-1.03-2.01-2.3s0.9-2.3,2.01-2.3H94.5c1.11,0,2.01,1.03,2.01,2.3 S95.61,72.61,94.5,72.61z" style="fill:#8D6E63;"/>
        <path d="M66.71,86.67H45.93c-1.11,0-2.01-1.03-2.01-2.3c0-1.27,0.9-2.3,2.01-2.3h20.77 c1.11,0,2.01,1.03,2.01,2.3C68.71,85.64,67.81,86.67,66.71,86.67z" style="fill:#8D6E63;"/>
      </g>
    </g>
    <g style="opacity:0.2;">
      <path d="M96.3,7.25c5.98,0,10.85,4.87,10.85,10.85v46.15v32.31c0,1.66,1.36,3,3.02,3 c5.98,0,10.85,4.87,10.85,10.85c0,5.86-4.67,10.65-10.48,10.84c-0.12-0.01-0.24-0.02-0.36-0.02H41.19 c-0.17,0-0.32,0.01-0.43,0.03c-5.91-0.09-10.68-4.92-10.68-10.84V64.25V31.94c0-1.66-1.34-3-3-3h-4.6h-4.63 c-5.98,0-10.85-4.87-10.85-10.85S11.86,7.25,17.84,7.25H96.3 M96.3,4.25H17.84c-7.64,0-13.85,6.2-13.85,13.85 c0,7.64,6.2,13.85,13.85,13.85c0.01,0,0.01,0,0.02,0h4.62h4.6v32.31v46.15c0,7.64,6.2,13.85,13.85,13.85 c0.1,0,0.18-0.03,0.27-0.03h68.98v0.03c7.65,0,13.85-6.2,13.85-13.85c0-7.65-6.2-13.85-13.85-13.85h-0.02V64.25V18.1 C110.14,10.45,103.95,4.25,96.3,4.25L96.3,4.25z" style="fill:#424242;"/>
    </g>
  </g>
</svg>